<?xml version="1.0" encoding="utf-8"?>
<svg class="img-fluid" id="outputsvg" xmlns="http://www.w3.org/2000/svg" width="870" height="869" viewBox="0 0 8700 8690">
  <g id="l3ZOGw59FYsLDmAqoMj9Wx4" fill="#0CCA4A" style="transform: none;">
    <g style="transform: none;">
      <path id="pTI9m6RKe" d="M4082 8679 c-568 -36 -1103 -175 -1610 -420 -201 -96 -306 -155 -491 -277 -876 -571 -1519 -1439 -1804 -2432 -82 -285 -133 -571 -158 -884 -15 -187 -6 -642 16 -816 117 -945 498 -1765 1142 -2465 269 -292 671 -611 1018 -807 526 -298 1097 -481 1710 -550 186 -20 751 -17 935 5 1364 169 2535 926 3235 2091 551 918 741 2041 524 3095 -130 632 -386 1201 -777 1727 l-75 101 -699 -626 c-789 -707 -761 -686 -908 -686 l-85 0 -240 109 c-478 217 -701 305 -1170 461 -248 82 -299 109 -355 187 -17 23 -40 73 -52 112 l-21 70 22 956 c12 525 23 979 24 1008 2 52 2 52 -28 51 -16 -1 -85 -5 -153 -10z m-1149 -2284 c636 -56 1198 -204 2202 -580 413 -155 953 -406 1300 -605 430 -247 808 -533 930 -705 75 -105 98 -165 103 -276 7 -154 -36 -273 -156 -424 -116 -148 -197 -217 -330 -284 l-64 -32 39 -42 c340 -369 379 -942 90 -1327 -138 -184 -367 -333 -606 -393 -121 -30 -360 -30 -472 1 -181 49 -341 142 -475 276 -153 153 -253 339 -294 548 l-11 56 -52 -23 c-301 -132 -708 -173 -1057 -106 -530 103 -1006 465 -1249 951 l-48 95 -48 -38 c-179 -142 -402 -218 -639 -218 -396 0 -735 210 -912 566 -79 160 -106 273 -107 450 -1 145 9 219 44 327 122 378 492 676 875 705 99 8 101 9 75 79 -71 189 -98 417 -67 563 64 301 278 444 671 450 50 0 166 -6 258 -14z"></path>
      <path id="pbxvRYunI" d="M1675 4969 c-267 -33 -467 -262 -469 -538 -1 -165 48 -287 158 -397 273 -273 710 -208 889 133 117 224 81 464 -97 638 -129 126 -304 186 -481 164z"></path>
      <path id="pkJwl1NAd" d="M6416 3134 c-178 -43 -324 -185 -382 -370 -23 -74 -26 -96 -22 -191 4 -80 10 -123 27 -166 70 -180 229 -311 427 -352 309 -64 617 176 650 508 8 80 -15 191 -58 277 -40 82 -150 193 -235 238 -124 66 -279 87 -407 56z"></path>
    </g>
  </g>
</svg>
